<mxfile host="65bd71144e">
    <diagram id="_-ohaFQ5pF2zJmRtjz2j" name="Page-1">
        <mxGraphModel dx="1477" dy="860" grid="1" gridSize="10" guides="1" tooltips="1" connect="1" arrows="1" fold="1" page="1" pageScale="1" pageWidth="827" pageHeight="1169" math="0" shadow="0">
            <root>
                <mxCell id="0"/>
                <mxCell id="1" parent="0"/>
                <mxCell id="OiYbpcwGxZJ6YMpOUJPK-16" value="" style="rounded=1;whiteSpace=wrap;html=1;" vertex="1" parent="1">
                    <mxGeometry x="250" y="90" width="470" height="480" as="geometry"/>
                </mxCell>
                <mxCell id="OiYbpcwGxZJ6YMpOUJPK-15" value="" style="rounded=1;whiteSpace=wrap;html=1;" vertex="1" parent="1">
                    <mxGeometry x="300" y="200" width="330" height="320" as="geometry"/>
                </mxCell>
                <mxCell id="4" value="Card" style="rounded=0;whiteSpace=wrap;html=1;" parent="1" vertex="1">
                    <mxGeometry x="390" y="230" width="70" height="100" as="geometry"/>
                </mxCell>
                <mxCell id="6" value="Increase" style="rounded=1;whiteSpace=wrap;html=1;" parent="1" vertex="1">
                    <mxGeometry x="420" y="460" width="90" height="30" as="geometry"/>
                </mxCell>
                <mxCell id="7" value="Decrease" style="rounded=1;whiteSpace=wrap;html=1;" parent="1" vertex="1">
                    <mxGeometry x="320" y="460" width="90" height="30" as="geometry"/>
                </mxCell>
                <mxCell id="8" value="Card" style="rounded=0;whiteSpace=wrap;html=1;" vertex="1" parent="1">
                    <mxGeometry x="474" y="230" width="70" height="100" as="geometry"/>
                </mxCell>
                <mxCell id="9" value="Card" style="rounded=0;whiteSpace=wrap;html=1;" vertex="1" parent="1">
                    <mxGeometry x="390" y="340" width="70" height="100" as="geometry"/>
                </mxCell>
                <mxCell id="10" value="Card" style="rounded=0;whiteSpace=wrap;html=1;" vertex="1" parent="1">
                    <mxGeometry x="474" y="340" width="70" height="100" as="geometry"/>
                </mxCell>
                <mxCell id="12" value="Timer" style="ellipse;whiteSpace=wrap;html=1;aspect=fixed;" vertex="1" parent="1">
                    <mxGeometry x="610" y="120" width="80" height="80" as="geometry"/>
                </mxCell>
                <mxCell id="14" value="New Game" style="rounded=1;whiteSpace=wrap;html=1;" vertex="1" parent="1">
                    <mxGeometry x="520" y="460" width="90" height="30" as="geometry"/>
                </mxCell>
                <mxCell id="g_td34s9uwpkPaOACNJX-14" value="Button - Increase/Decrease amount of cards&lt;br&gt;" style="text;html=1;resizable=0;autosize=1;align=center;verticalAlign=middle;points=[];fillColor=none;strokeColor=none;rounded=0;" vertex="1" parent="1">
                    <mxGeometry x="22" y="40" width="250" height="20" as="geometry"/>
                </mxCell>
                <mxCell id="g_td34s9uwpkPaOACNJX-15" value="Display card button" style="text;html=1;resizable=0;autosize=1;align=center;verticalAlign=middle;points=[];fillColor=none;strokeColor=none;rounded=0;" vertex="1" parent="1">
                    <mxGeometry x="21" y="70" width="120" height="20" as="geometry"/>
                </mxCell>
                <mxCell id="kHbE9WZzlONIYQM6FPcW-14" value="New game - reset game" style="text;html=1;resizable=0;autosize=1;align=center;verticalAlign=middle;points=[];fillColor=none;strokeColor=none;rounded=0;" vertex="1" parent="1">
                    <mxGeometry x="23" y="100" width="140" height="20" as="geometry"/>
                </mxCell>
                <mxCell id="kHbE9WZzlONIYQM6FPcW-15" value="Timer" style="text;html=1;resizable=0;autosize=1;align=center;verticalAlign=middle;points=[];fillColor=none;strokeColor=none;rounded=0;" vertex="1" parent="1">
                    <mxGeometry x="19" y="130" width="50" height="20" as="geometry"/>
                </mxCell>
                <mxCell id="kHbE9WZzlONIYQM6FPcW-16" value="Card Container" style="text;html=1;resizable=0;autosize=1;align=center;verticalAlign=middle;points=[];fillColor=none;strokeColor=none;rounded=0;" vertex="1" parent="1">
                    <mxGeometry x="19" y="157" width="100" height="20" as="geometry"/>
                </mxCell>
                <mxCell id="kHbE9WZzlONIYQM6FPcW-17" value="Card" style="text;html=1;resizable=0;autosize=1;align=center;verticalAlign=middle;points=[];fillColor=none;strokeColor=none;rounded=0;" vertex="1" parent="1">
                    <mxGeometry x="21" y="182" width="40" height="20" as="geometry"/>
                </mxCell>
            </root>
        </mxGraphModel>
    </diagram>
</mxfile>